<?xml version="1.0" encoding="UTF-8" standalone="no"?>
<!DOCTYPE svg PUBLIC "-//W3C//DTD SVG 1.1//EN" "http://www.w3.org/Graphics/SVG/1.1/DTD/svg11.dtd">
<svg width="100%" height="100%" viewBox="0 0 128 128" version="1.1" xmlns="http://www.w3.org/2000/svg" xmlns:xlink="http://www.w3.org/1999/xlink" xml:space="preserve" xmlns:serif="http://www.serif.com/" style="fill-rule:evenodd;clip-rule:evenodd;stroke-linejoin:round;stroke-miterlimit:2;">
    <path d="M0,64C0,28.677 28.677,0 64,0C99.323,0 128,28.677 128,64L120,128L88,128L96,64C96,46.339 81.661,32 64,32C46.339,32 32,46.339 32,64L40,128L8,128L0,64Z" style="fill:rgb(219,80,80);"/>
    <g transform="matrix(1.125,0,0,1,92,0)">
        <path d="M28.444,96L0,96L-3.556,128L24.889,128L28.444,96Z" style="fill:rgb(238,238,238);"/>
    </g>
    <g transform="matrix(1.125,0,0,1,12,0)">
        <path d="M21.333,96L-7.111,96L-3.556,128L24.889,128L21.333,96Z" style="fill:rgb(238,238,238);"/>
    </g>
</svg>
