<?xml version="1.0" encoding="UTF-8" standalone="no"?>
<!DOCTYPE svg PUBLIC "-//W3C//DTD SVG 1.1//EN" "http://www.w3.org/Graphics/SVG/1.1/DTD/svg11.dtd">
<svg width="100%" height="100%" viewBox="0 0 64 64" version="1.1" xmlns="http://www.w3.org/2000/svg" xmlns:xlink="http://www.w3.org/1999/xlink" xml:space="preserve" xmlns:serif="http://www.serif.com/" style="fill-rule:evenodd;clip-rule:evenodd;stroke-linejoin:round;stroke-miterlimit:2;">
    <g transform="matrix(1,0,0,1.11111,0,2.22222)">
        <path d="M16,23.2L24,16L40,16L48,23.2L48,48.4C48,50.388 46.209,52 44,52L20,52C17.791,52 16,50.388 16,48.4L16,23.2Z" style="fill:rgb(251,251,251);"/>
    </g>
    <g transform="matrix(-0.666667,8.16431e-17,-1.22465e-16,-1,50.6667,76)">
        <path d="M40,16L16,16L22,12L34,12L40,16Z" style="fill:rgb(79,79,79);"/>
    </g>
    <g transform="matrix(2,0,0,1,-32,4)">
        <rect x="28" y="12" width="8" height="4" style="fill:rgb(255,0,0);"/>
    </g>
    <g transform="matrix(1.08711e-16,-1.77539,2,1.22465e-16,-56,66.1625)">
        <path d="M21.495,36L5.724,36L5.724,28L13.61,28L21.495,36Z" style="fill:rgb(235,235,235);"/>
    </g>
    <g transform="matrix(1.08711e-16,1.77539,-2,1.22465e-16,120,17.8375)">
        <path d="M21.495,36L5.724,36L13.61,28L21.495,28L21.495,36Z" style="fill:rgb(235,235,235);"/>
    </g>
    <path d="M24,8C24,3.585 27.585,0 32,0C36.415,0 40,3.585 40,8L40,16L24,16L24,8Z" style="fill:rgb(251,251,251);"/>
    <g transform="matrix(1,0,0,1,-4,28)">
        <path d="M8,10C8,9.47 7.789,8.961 7.414,8.586C7.039,8.211 6.53,8 6,8C5.47,8 4.961,8.211 4.586,8.586C4.211,8.961 4,9.47 4,10C4,14.52 4,25.48 4,30C4,30.53 4.211,31.039 4.586,31.414C4.961,31.789 5.47,32 6,32C6.53,32 7.039,31.789 7.414,31.414C7.789,31.039 8,30.53 8,30C8,25.48 8,14.52 8,10Z" style="fill:rgb(251,251,251);"/>
    </g>
    <g transform="matrix(1,0,0,1,26,24)">
        <path d="M8,10C8,9.47 7.789,8.961 7.414,8.586C7.039,8.211 6.53,8 6,8C5.47,8 4.961,8.211 4.586,8.586C4.211,8.961 4,9.47 4,10C4,14.52 4,25.48 4,30C4,30.53 4.211,31.039 4.586,31.414C4.961,31.789 5.47,32 6,32C6.53,32 7.039,31.789 7.414,31.414C7.789,31.039 8,30.53 8,30C8,25.48 8,14.52 8,10Z" style="fill:rgb(235,235,235);"/>
    </g>
    <g transform="matrix(1,0,0,1,56,28)">
        <path d="M8,10C8,9.47 7.789,8.961 7.414,8.586C7.039,8.211 6.53,8 6,8C5.47,8 4.961,8.211 4.586,8.586C4.211,8.961 4,9.47 4,10C4,14.52 4,25.48 4,30C4,30.53 4.211,31.039 4.586,31.414C4.961,31.789 5.47,32 6,32C6.53,32 7.039,31.789 7.414,31.414C7.789,31.039 8,30.53 8,30C8,25.48 8,14.52 8,10Z" style="fill:rgb(251,251,251);"/>
    </g>
</svg>
