<?xml version="1.0" encoding="UTF-8" standalone="no"?>
<!DOCTYPE svg PUBLIC "-//W3C//DTD SVG 1.1//EN" "http://www.w3.org/Graphics/SVG/1.1/DTD/svg11.dtd">
<svg width="100%" height="100%" viewBox="0 0 32 32" version="1.1" xmlns="http://www.w3.org/2000/svg" xmlns:xlink="http://www.w3.org/1999/xlink" xml:space="preserve" xmlns:serif="http://www.serif.com/" style="fill-rule:evenodd;clip-rule:evenodd;stroke-linejoin:round;stroke-miterlimit:2;">
    <g transform="matrix(0.8,0,0,1.6,-8,-32)">
        <path d="M50,24.385C50,23.178 49.041,22.021 47.335,21.167C46.912,20.956 46.496,20.748 46.135,20.567C45.408,20.204 44.423,20 43.395,20C37.873,20 20,20 20,20L10,25L10,35.615C10,36.822 10.959,37.979 12.665,38.833C13.088,39.044 13.504,39.252 13.865,39.433C14.592,39.796 15.577,40 16.605,40C22.127,40 40,40 40,40L50,35L50,24.385Z" style="fill:url(#_Linear1);"/>
    </g>
    <g transform="matrix(0.6,0,0,1.2,-2,-20)">
        <path d="M50,23.881C50,22.997 49.298,22.149 48.047,21.524C47.688,21.344 47.312,21.156 46.953,20.976C45.702,20.351 44.007,20 42.239,20L20,20L10,25L10,36.119C10,37.003 10.702,37.851 11.953,38.476C12.312,38.656 12.688,38.844 13.047,39.024C14.298,39.649 15.993,40 17.761,40L40,40L50,35L50,23.881Z" style="fill:rgb(53,53,53);"/>
    </g>
    <defs>
        <linearGradient id="_Linear1" x1="0" y1="0" x2="1" y2="0" gradientUnits="userSpaceOnUse" gradientTransform="matrix(-40,20,-40,-20,50,20)"><stop offset="0" style="stop-color:rgb(200,200,200);stop-opacity:1"/><stop offset="1" style="stop-color:rgb(100,100,100);stop-opacity:1"/></linearGradient>
    </defs>
</svg>
