<?xml version="1.0" encoding="UTF-8" standalone="no"?>
<!DOCTYPE svg PUBLIC "-//W3C//DTD SVG 1.1//EN" "http://www.w3.org/Graphics/SVG/1.1/DTD/svg11.dtd">
<svg width="100%" height="100%" viewBox="0 0 128 128" version="1.1" xmlns="http://www.w3.org/2000/svg" xmlns:xlink="http://www.w3.org/1999/xlink" xml:space="preserve" xmlns:serif="http://www.serif.com/" style="fill-rule:evenodd;clip-rule:evenodd;stroke-linejoin:round;stroke-miterlimit:2;">
    <g id="Layer2">
        <path d="M68.794,86.966C70.668,86.836 72.469,85.837 74.161,85.112C78.251,83.359 83.279,80.805 86.631,77.845C87.736,76.869 88.512,75.532 89.629,74.552C91.749,72.693 94.09,71.044 95.196,68.391C96.894,64.315 101.582,62.385 105.657,64.083C109.733,65.781 111.663,70.469 109.965,74.545C107.9,79.501 104.14,83.107 100.18,86.581C99.077,87.548 98.315,88.872 97.223,89.836C92.693,93.838 85.991,97.449 80.463,99.818C76.733,101.417 72.546,102.98 68.391,102.98C68.15,102.98 66.132,102.683 64.88,102.496C61.062,103.226 57.174,101.076 55.841,97.298C55.14,95.313 55.278,93.562 55.777,92.039C56.291,90.468 57.248,89.012 58.88,87.879C59.686,87.318 60.842,86.722 62.417,86.471C63.547,86.291 67.317,86.766 68.794,86.966ZM70.092,98.995C71.507,97.096 71.924,94.794 70.929,91.973C71.788,94.408 71.397,96.982 70.092,98.995Z" style="fill:rgb(255,0,226);"/>
        <path d="M57.754,26.093C53.689,25.275 50.879,21.439 51.401,17.259C51.949,12.878 55.95,9.765 60.332,10.313C62.417,10.573 64.459,11.393 66.378,12.598C67.61,13.371 68.759,14.41 69.887,15.049C74.629,17.732 79.397,19.75 83.548,23.464C89.005,28.347 93.719,34.977 97.772,40.873C100.274,44.511 99.351,49.496 95.712,51.997C92.074,54.499 87.089,53.576 84.588,49.937C81.22,45.039 77.413,39.444 72.879,35.388C69.614,32.466 65.738,31.085 62.008,28.974C60.77,28.274 58.283,26.477 57.754,26.093Z" style="fill:rgb(255,0,226);"/>
        <path d="M43.016,50.886C42.718,51.178 42.364,51.517 42.127,51.715C40.594,52.999 39.608,54.656 38.915,56.526C35.644,65.347 35.843,74.794 37.839,83.865C38.788,88.178 36.057,92.449 31.745,93.398C27.433,94.346 23.161,91.615 22.213,87.303C19.559,75.241 19.564,62.693 23.913,50.963C25.589,46.443 28.146,42.555 31.852,39.451C33.669,37.928 35.779,36.186 38.257,35.795C42.618,35.106 46.718,38.088 47.407,42.449C47.968,46.004 46.091,49.384 43.016,50.886Z" style="fill:rgb(255,0,226);"/>
    </g>
</svg>
