<?xml version="1.0" encoding="UTF-8" standalone="no"?>
<!DOCTYPE svg PUBLIC "-//W3C//DTD SVG 1.1//EN" "http://www.w3.org/Graphics/SVG/1.1/DTD/svg11.dtd">
<svg width="100%" height="100%" viewBox="0 0 128 128" version="1.1" xmlns="http://www.w3.org/2000/svg" xmlns:xlink="http://www.w3.org/1999/xlink" xml:space="preserve" xmlns:serif="http://www.serif.com/" style="fill-rule:evenodd;clip-rule:evenodd;stroke-linejoin:round;stroke-miterlimit:2;">
    <g id="Layer4">
        <path d="M90.779,38.82C90.62,38.19 90.535,37.531 90.535,36.852C90.535,36.042 90.632,35.56 90.671,35.348C91.492,30.919 94.524,29.783 95.623,29.353C97.887,28.467 100.266,28.49 102.698,29.969C103.403,30.398 105.32,31.514 106.214,34.545C106.237,34.623 106.349,35.193 106.43,35.612C106.559,36.066 106.678,36.52 106.795,36.981C107.327,39.059 107.581,41.249 107.657,43.387C107.844,48.637 107.776,53.756 107.156,58.992C106.133,67.631 104.059,76.625 98.589,83.736C96.612,86.306 94.069,88.895 91.605,91.006C91.058,91.475 89.999,92.344 89.629,92.647C87.741,96.313 83.315,97.975 79.443,96.362C75.367,94.664 73.437,89.976 75.135,85.9C76.346,82.994 78.893,80.829 81.193,78.858C82.85,77.437 84.577,75.709 85.907,73.98C89.605,69.173 90.575,62.951 91.267,57.11C91.789,52.697 91.825,48.383 91.667,43.959C91.631,42.955 91.544,41.922 91.295,40.946C91.201,40.581 91.111,40.222 91.003,39.862C90.943,39.664 90.855,39.222 90.779,38.82ZM97.601,44.798C99.524,45.107 101.429,44.733 103.225,43.332C101.907,44.288 100.286,44.852 98.535,44.852C98.219,44.852 97.907,44.834 97.601,44.798ZM104.621,42.042C105.203,41.482 106.535,39.979 106.535,36.852C106.535,38.832 105.814,40.644 104.621,42.042Z" style="fill:rgb(66,255,0);"/>
        <path d="M77.531,44.658C75.214,43.636 72.631,43.287 70.334,42.215C62.712,38.658 53.492,39.552 45.67,42.071C44.739,42.37 41.646,43.449 40.514,43.845C38.489,46.443 34.973,47.618 31.672,46.517C27.483,45.121 25.216,40.587 26.612,36.398C27.341,34.211 29.134,31.846 32.09,30.137C34.783,28.582 38.96,27.422 40.765,26.841C52.291,23.129 65.868,22.474 77.101,27.716C80,29.069 83.263,29.509 86.09,31.051C87.179,31.645 89.495,33.407 90.687,35.133C92.254,37.402 92.609,39.833 92.274,41.845C91.548,46.2 87.422,49.146 83.067,48.421C80.669,48.021 78.697,46.59 77.531,44.658Z" style="fill:rgb(66,255,0);"/>
        <path d="M41.609,61.656C41.598,61.851 41.589,62.014 41.584,62.094C41.318,66.823 40.812,71.174 41.803,75.848C44.146,86.909 55.919,93.081 65.968,96.096C70.197,97.364 72.601,101.828 71.332,106.057C70.063,110.286 65.6,112.69 61.371,111.421C46.148,106.854 29.7,95.92 26.15,79.164C24.856,73.056 25.262,67.377 25.609,61.196C25.649,60.483 25.705,58.552 26.048,56.985C26.424,55.268 27.128,53.792 27.908,52.744C29.715,50.316 32.144,49.137 35.008,49.137C39.424,49.137 43.008,52.722 43.008,57.137C43.008,58.814 42.492,60.37 41.609,61.656ZM35.638,65.113C35.43,65.129 35.22,65.137 35.008,65.137C35.221,65.137 35.431,65.129 35.638,65.113Z" style="fill:rgb(66,255,0);"/>
    </g>
</svg>
