<?xml version="1.0" encoding="UTF-8" standalone="no"?>
<!DOCTYPE svg PUBLIC "-//W3C//DTD SVG 1.1//EN" "http://www.w3.org/Graphics/SVG/1.1/DTD/svg11.dtd">
<svg width="100%" height="100%" viewBox="0 0 128 128" version="1.1" xmlns="http://www.w3.org/2000/svg" xmlns:xlink="http://www.w3.org/1999/xlink" xml:space="preserve" xmlns:serif="http://www.serif.com/" style="fill-rule:evenodd;clip-rule:evenodd;stroke-linejoin:round;stroke-miterlimit:2;">
    <g id="Layer1">
        <path d="M85.883,73.748C86.216,72.93 87.373,70.112 87.917,69.091C92.122,61.206 90.665,51.462 90.665,42.902C90.665,38.487 94.25,34.902 98.665,34.902C103.081,34.902 106.665,38.487 106.665,42.902C106.665,53.965 107.47,66.43 102.035,76.62C101.335,77.933 100.641,80.245 99.666,81.942C98.584,83.826 97.219,85.293 95.784,86.25C92.11,88.699 87.139,87.705 84.69,84.031C82.486,80.727 83.07,76.372 85.883,73.748Z" style="fill:rgb(255,197,0);"/>
        <path d="M61.607,37.589C61.222,37.432 59.611,36.792 58.829,36.77C54.426,36.646 49.976,37.44 46.024,39.416C45.193,39.832 44.294,40.279 43.459,40.823C43.123,41.043 42.675,41.148 42.516,41.509C40.731,45.547 36.003,47.377 31.965,45.593C27.926,43.808 26.096,39.081 27.881,35.042C29.922,30.423 34.582,27.249 38.869,25.106C45.176,21.952 52.253,20.579 59.28,20.776C65.241,20.944 73.247,24.472 76.011,30.637C77.817,34.666 76.013,39.404 71.984,41.21C68.093,42.954 63.541,41.331 61.607,37.589Z" style="fill:rgb(255,197,0);"/>
        <path d="M45.06,73.44C45.111,73.849 45.156,74.273 45.156,74.481C45.156,74.956 45.141,75.391 45.196,75.864C45.437,77.917 46.27,79.834 47.528,81.46C50.697,85.555 54.039,90.357 59.256,91.801C61.571,92.443 64.029,92.032 66.353,92.575C70.653,93.578 73.329,97.883 72.326,102.183C71.323,106.483 67.017,109.159 62.718,108.156C60.183,107.565 57.512,107.921 54.986,107.221C46.417,104.848 40.079,97.978 34.874,91.251C31.839,87.33 29.885,82.679 29.305,77.724C29.175,76.613 29.156,75.595 29.156,74.481C29.156,74.773 29.254,75.659 29.254,75.659C29.254,75.659 29.49,70.77 29.817,70.086C31.364,66.854 33.921,65.52 37.061,65.52C41.449,65.52 45.017,69.061 45.06,73.44ZM43.816,77.805C42.396,80.038 39.9,81.52 37.061,81.52C39.898,81.52 42.258,80.424 43.816,77.805Z" style="fill:rgb(255,197,0);"/>
    </g>
</svg>
