<?xml version="1.0" encoding="UTF-8" standalone="no"?>
<!DOCTYPE svg PUBLIC "-//W3C//DTD SVG 1.1//EN" "http://www.w3.org/Graphics/SVG/1.1/DTD/svg11.dtd">
<svg width="100%" height="100%" viewBox="0 0 128 128" version="1.1" xmlns="http://www.w3.org/2000/svg" xmlns:xlink="http://www.w3.org/1999/xlink" xml:space="preserve" xmlns:serif="http://www.serif.com/" style="fill-rule:evenodd;clip-rule:evenodd;stroke-linejoin:round;stroke-miterlimit:2;">
    <g id="Layer3">
        <path d="M93.653,16.736C93.996,17.21 94.481,17.883 94.617,18.089C96.705,21.251 98.203,25.116 99.479,28.664C102.499,37.063 104.543,46.143 105.285,55.049C105.535,58.049 105.938,61.127 106.044,64.129C106.067,64.791 105.594,67.125 105.368,68.197C105.165,71.235 103.228,74.024 100.193,75.162C96.059,76.712 91.444,74.615 89.894,70.481C89.622,69.757 89.38,68.809 89.366,67.636C89.358,67.034 89.79,64.955 90.018,63.898C89.884,61.403 89.548,58.862 89.341,56.378C88.713,48.85 86.975,41.177 84.423,34.078C83.564,31.689 82.671,29.035 81.266,26.906C80.757,26.136 79.069,23.794 78.54,22.348C77.685,20.01 77.903,17.954 78.394,16.48C79.791,12.292 84.325,10.024 88.514,11.421C91.086,12.278 92.933,14.319 93.653,16.736Z" style="fill:rgb(0,195,255);"/>
        <path d="M63.187,41.396C61.155,41.48 59.265,41.663 57.242,42.224C46.868,45.101 36.496,47.633 28.266,54.997C24.976,57.941 19.914,57.66 16.97,54.369C14.026,51.079 14.307,46.017 17.597,43.073C27.716,34.02 40.213,30.343 52.967,26.806C56.626,25.791 59.992,25.474 63.765,25.367C69.074,25.218 73.571,26.758 75.025,32.575C76.096,36.858 73.488,41.205 69.204,42.276C67.078,42.808 64.936,42.433 63.187,41.396Z" style="fill:rgb(0,195,255);"/>
        <path d="M42.492,78.199C45.008,78.32 47.221,79.605 48.603,81.527C47.911,80.464 46.286,78.383 42.622,78.202C44.604,78.264 47.277,78.878 49.429,81.189C50.047,81.853 51.017,83.102 51.312,83.485C54.15,85.275 56.646,86.864 59.978,87.688C65.17,88.971 70.236,91.406 75.638,91.637C81.605,91.893 87.31,89.11 93.101,88.233C97.467,87.571 101.548,90.578 102.21,94.944C102.871,99.309 99.864,103.391 95.498,104.052C88.71,105.08 81.947,107.922 74.953,107.623C68.49,107.346 62.35,104.756 56.139,103.22C50.934,101.934 46.962,99.654 42.49,96.838C41.079,95.95 40.109,94.856 39.134,93.712C36.722,92.853 35.709,91.078 35.314,90.45C34.255,88.771 33.892,86.969 34.161,85.068C34.351,83.72 34.879,82.061 36.449,80.503C36.865,80.09 37.926,79.015 40.029,78.446C40.429,78.338 41.335,78.176 42.492,78.199ZM42.492,78.199C42.363,78.193 42.233,78.189 42.102,78.189C42.28,78.189 42.453,78.194 42.622,78.202C42.578,78.201 42.535,78.2 42.492,78.199ZM45.941,93.209C46.343,92.992 46.674,92.767 46.943,92.558C46.627,92.798 46.292,93.016 45.941,93.209Z" style="fill:rgb(0,195,255);"/>
    </g>
</svg>
