<?xml version="1.0" encoding="UTF-8" standalone="no"?>
<!DOCTYPE svg PUBLIC "-//W3C//DTD SVG 1.1//EN" "http://www.w3.org/Graphics/SVG/1.1/DTD/svg11.dtd">
<svg width="100%" height="100%" viewBox="0 0 128 128" version="1.1" xmlns="http://www.w3.org/2000/svg" xmlns:xlink="http://www.w3.org/1999/xlink" xml:space="preserve" xmlns:serif="http://www.serif.com/" style="fill-rule:evenodd;clip-rule:evenodd;stroke-linejoin:round;stroke-miterlimit:2;">
    <g id="Layer5">
        <path d="M59.37,99.273C55.626,96.932 54.486,91.993 56.826,88.249C59.166,84.504 64.106,83.364 67.85,85.705C68.864,86.338 70.055,85.865 71.197,85.587C73.027,85.141 74.81,84.43 76.414,83.817C81.415,81.907 86.869,79.717 90.706,75.813C93.127,73.35 95.114,69.052 96.453,65.872C98.166,61.803 102.861,59.89 106.93,61.603C111,63.317 112.912,68.012 111.199,72.081C109.16,76.924 105.805,83.276 102.117,87.028C96.688,92.553 89.201,96.06 82.124,98.764C78.584,100.116 74.399,101.603 70.353,101.868C66.513,102.119 62.77,101.397 59.37,99.273Z" style="fill:rgb(255,116,0);"/>
        <path d="M46.718,38.327C44.583,40.016 41.638,40.574 38.909,39.539C34.781,37.973 32.701,33.35 34.267,29.222C35.132,26.941 36.673,25.259 38.754,24.121C40.209,23.324 42.285,22.987 43.729,22.621C48.161,21.496 52.451,21.013 57.022,21.12C70.758,21.439 82.844,23.677 93.129,33.646C96.52,36.932 97.959,40.79 99.806,44.715C101.686,48.71 99.969,53.48 95.974,55.36C91.979,57.24 87.209,55.523 85.329,51.528C84.299,49.338 83.885,46.968 81.994,45.135C74.84,38.201 66.204,37.337 56.65,37.115C53.56,37.043 50.66,37.369 47.664,38.129C47.436,38.187 47.077,38.259 46.718,38.327Z" style="fill:rgb(255,116,0);"/>
        <path d="M41.416,60.849C41.098,61.947 40.911,63.137 40.69,64.23C39.534,69.938 38.17,75.654 39.321,81.469C39.745,83.61 40.698,86.201 42.357,87.667C43.25,88.456 44.021,89.372 44.959,90.102C45.738,90.645 47.495,91.892 47.907,92.356C48.616,93.153 49.049,93.934 49.328,94.582C50.976,98.406 49.91,101.422 47.353,103.746C44.218,106.597 39.427,106.489 36.421,103.588C35.98,103.31 35.447,102.97 35.315,102.87C34.045,101.9 32.964,100.718 31.764,99.659C27.644,96.019 24.678,89.892 23.625,84.575C22.057,76.653 23.433,68.831 25.008,61.054C25.443,58.91 25.906,56.559 26.669,54.51C26.644,54.578 26.572,54.79 26.572,54.79C26.572,54.79 27.397,52.56 27.94,51.745C28.886,50.325 30.07,49.422 31.146,48.876C33.994,47.43 37.147,47.19 40.39,50.138C43.466,52.935 43.859,57.587 41.416,60.849ZM33.996,98.431C33.818,96.058 34.695,93.63 36.591,91.907C34.636,93.685 33.712,95.848 33.996,98.431ZM36.087,63.983C33.825,64.29 31.447,63.632 29.627,61.977C31.85,63.998 34.03,64.422 36.087,63.983Z" style="fill:rgb(255,116,0);"/>
    </g>
</svg>
