<?xml version="1.0" encoding="UTF-8" standalone="no"?>
<!DOCTYPE svg PUBLIC "-//W3C//DTD SVG 1.1//EN" "http://www.w3.org/Graphics/SVG/1.1/DTD/svg11.dtd">
<svg width="100%" height="100%" viewBox="0 0 128 128" version="1.1" xmlns="http://www.w3.org/2000/svg" xmlns:xlink="http://www.w3.org/1999/xlink" xml:space="preserve" xmlns:serif="http://www.serif.com/" style="fill-rule:evenodd;clip-rule:evenodd;stroke-linejoin:round;stroke-miterlimit:2;">
    <g id="Layer6">
        <path d="M52.236,86.565C53.96,88.012 56.098,89.292 58.088,90.251C63.394,92.806 69.647,93.627 75.482,93.46C77.504,93.402 79.476,93.77 81.426,93.12C85.614,91.724 90.149,93.991 91.545,98.18C92.941,102.368 90.674,106.903 86.485,108.299C83.01,109.457 79.543,109.351 75.939,109.454C67.61,109.692 58.722,108.314 51.147,104.667C47.722,103.018 44.062,100.716 41.213,98.183C40.746,97.769 39.292,95.904 38.558,94.949C37.586,94.184 36.778,93.182 36.231,91.979C34.404,87.959 36.184,83.213 40.204,81.386C42.096,80.526 44.659,80.082 47.583,81.71C48.211,82.059 49.068,82.654 49.937,83.592C50.508,84.209 51.799,85.966 52.236,86.565Z" style="fill:rgb(96,0,255);"/>
        <path d="M105.117,61.645C105.442,64.786 103.879,67.958 100.924,69.534C97.028,71.612 92.178,70.136 90.1,66.24C89.63,65.359 89.169,64.102 89.092,62.489C89.062,61.858 89.217,60.266 89.298,59.501C88.878,56.626 88.76,53.336 87.725,50.717C85.545,45.198 81.264,41.945 76.23,38.91C74.046,37.593 72.043,35.565 69.731,34.514C65.711,32.687 63.931,27.94 65.758,23.921C67.585,19.901 72.332,18.121 76.352,19.948C79.207,21.246 81.794,23.582 84.491,25.208C92.651,30.128 99.072,35.892 102.606,44.838C104.117,48.663 104.47,53.508 105.19,57.567C105.325,58.329 105.193,60.563 105.117,61.645Z" style="fill:rgb(96,0,255);"/>
        <path d="M45.182,46.98C43.402,47.886 41.691,49.23 40.277,50.54C37.271,53.324 34.119,56.581 32.299,60.29C31.086,62.762 30.558,65.483 31.877,68.36C33.717,72.374 31.952,77.126 27.938,78.965C23.924,80.805 19.172,79.04 17.332,75.026C10.891,60.973 19.618,47.864 29.407,38.799C32.417,36.013 36.27,33.287 40.098,31.724C44.339,29.991 49.521,30.04 52.836,33.976C55.681,37.354 55.248,42.405 51.87,45.249C49.945,46.87 47.476,47.426 45.182,46.98Z" style="fill:rgb(96,0,255);"/>
    </g>
</svg>
