<?xml version="1.0" encoding="UTF-8" standalone="no"?>
<!DOCTYPE svg PUBLIC "-//W3C//DTD SVG 1.1//EN" "http://www.w3.org/Graphics/SVG/1.1/DTD/svg11.dtd">
<svg width="100%" height="100%" viewBox="0 0 1280 720" version="1.1" xmlns="http://www.w3.org/2000/svg" xmlns:xlink="http://www.w3.org/1999/xlink" xml:space="preserve" xmlns:serif="http://www.serif.com/" style="fill-rule:evenodd;clip-rule:evenodd;stroke-linejoin:round;stroke-miterlimit:2;">
    <g>
        <path d="M555.573,229.715C555.573,228.612 556.469,227.715 557.573,227.715C558.677,227.715 559.573,228.612 559.573,229.715L559.573,229.738C559.573,230.842 558.677,231.738 557.573,231.738C556.469,231.738 555.573,230.842 555.573,229.738L555.573,229.715Z" style="fill:white;"/>
        <g transform="matrix(1,0,0,1,-1.5727,258.285)">
            <path d="M555.573,229.715C555.573,228.612 556.469,227.715 557.573,227.715C558.677,227.715 559.573,228.612 559.573,229.715L559.573,229.738C559.573,230.842 558.677,231.738 557.573,231.738C556.469,231.738 555.573,230.842 555.573,229.738L555.573,229.715Z" style="fill:white;"/>
        </g>
        <g transform="matrix(1,0,0,1,366.427,282.262)">
            <path d="M555.573,229.715C555.573,228.612 556.469,227.715 557.573,227.715C558.677,227.715 559.573,228.612 559.573,229.715L559.573,229.738C559.573,230.842 558.677,231.738 557.573,231.738C556.469,231.738 555.573,230.842 555.573,229.738L555.573,229.715Z" style="fill:white;"/>
        </g>
        <g transform="matrix(1,0,0,1,510.427,122.262)">
            <path d="M555.573,229.715C555.573,228.612 556.469,227.715 557.573,227.715C558.677,227.715 559.573,228.612 559.573,229.715L559.573,229.738C559.573,230.842 558.677,231.738 557.573,231.738C556.469,231.738 555.573,230.842 555.573,229.738L555.573,229.715Z" style="fill:white;"/>
        </g>
        <g transform="matrix(1,0,0,1,490.427,430.285)">
            <path d="M555.573,229.715C555.573,228.612 556.469,227.715 557.573,227.715C558.677,227.715 559.573,228.612 559.573,229.715L559.573,229.738C559.573,230.842 558.677,231.738 557.573,231.738C556.469,231.738 555.573,230.842 555.573,229.738L555.573,229.715Z" style="fill:white;"/>
        </g>
        <g transform="matrix(1,0,0,1,-193.573,-189.715)">
            <path d="M555.573,229.715C555.573,228.612 556.469,227.715 557.573,227.715C558.677,227.715 559.573,228.612 559.573,229.715L559.573,229.738C559.573,230.842 558.677,231.738 557.573,231.738C556.469,231.738 555.573,230.842 555.573,229.738L555.573,229.715Z" style="fill:white;"/>
        </g>
        <g transform="matrix(1,0,0,1,-389.573,46.2622)">
            <path d="M555.573,229.715C555.573,228.612 556.469,227.715 557.573,227.715C558.677,227.715 559.573,228.612 559.573,229.715L559.573,229.738C559.573,230.842 558.677,231.738 557.573,231.738C556.469,231.738 555.573,230.842 555.573,229.738L555.573,229.715Z" style="fill:white;"/>
        </g>
        <g transform="matrix(1,0,0,1,230.427,106.285)">
            <path d="M555.573,229.715C555.573,228.612 556.469,227.715 557.573,227.715C558.677,227.715 559.573,228.612 559.573,229.715L559.573,229.738C559.573,230.842 558.677,231.738 557.573,231.738C556.469,231.738 555.573,230.842 555.573,229.738L555.573,229.715Z" style="fill:white;"/>
        </g>
        <g transform="matrix(1,0,0,1,-229.573,358.262)">
            <path d="M555.573,229.715C555.573,228.612 556.469,227.715 557.573,227.715C558.677,227.715 559.573,228.612 559.573,229.715L559.573,229.738C559.573,230.842 558.677,231.738 557.573,231.738C556.469,231.738 555.573,230.842 555.573,229.738L555.573,229.715Z" style="fill:white;"/>
        </g>
        <g transform="matrix(1,0,0,1,154.427,-193.738)">
            <path d="M555.573,229.715C555.573,228.612 556.469,227.715 557.573,227.715C558.677,227.715 559.573,228.612 559.573,229.715L559.573,229.738C559.573,230.842 558.677,231.738 557.573,231.738C556.469,231.738 555.573,230.842 555.573,229.738L555.573,229.715Z" style="fill:white;"/>
        </g>
        <g transform="matrix(1,0,0,1,430.427,-73.7154)">
            <path d="M555.573,229.715C555.573,228.612 556.469,227.715 557.573,227.715C558.677,227.715 559.573,228.612 559.573,229.715L559.573,229.738C559.573,230.842 558.677,231.738 557.573,231.738C556.469,231.738 555.573,230.842 555.573,229.738L555.573,229.715Z" style="fill:white;"/>
        </g>
        <g transform="matrix(1,0,0,1,658.427,-201.715)">
            <path d="M555.573,229.715C555.573,228.612 556.469,227.715 557.573,227.715C558.677,227.715 559.573,228.612 559.573,229.715L559.573,229.738C559.573,230.842 558.677,231.738 557.573,231.738C556.469,231.738 555.573,230.842 555.573,229.738L555.573,229.715Z" style="fill:white;"/>
        </g>
        <g transform="matrix(1,0,0,1,638.427,210.285)">
            <path d="M555.573,229.715C555.573,228.612 556.469,227.715 557.573,227.715C558.677,227.715 559.573,228.612 559.573,229.715L559.573,229.738C559.573,230.842 558.677,231.738 557.573,231.738C556.469,231.738 555.573,230.842 555.573,229.738L555.573,229.715Z" style="fill:white;"/>
        </g>
        <g transform="matrix(1,0,0,1,-421.573,186.262)">
            <path d="M555.573,229.715C555.573,228.612 556.469,227.715 557.573,227.715C558.677,227.715 559.573,228.612 559.573,229.715L559.573,229.738C559.573,230.842 558.677,231.738 557.573,231.738C556.469,231.738 555.573,230.842 555.573,229.738L555.573,229.715Z" style="fill:white;"/>
        </g>
    </g>
</svg>
