<?xml version="1.0" encoding="UTF-8" standalone="no"?>
<!DOCTYPE svg PUBLIC "-//W3C//DTD SVG 1.1//EN" "http://www.w3.org/Graphics/SVG/1.1/DTD/svg11.dtd">
<svg width="100%" height="100%" viewBox="0 0 1280 720" version="1.1" xmlns="http://www.w3.org/2000/svg" xmlns:xlink="http://www.w3.org/1999/xlink" xml:space="preserve" xmlns:serif="http://www.serif.com/" style="fill-rule:evenodd;clip-rule:evenodd;stroke-linejoin:round;stroke-miterlimit:2;">
    <g>
        <path d="M80.155,181.469L80.155,181.602" style="fill:none;"/>
        <path d="M78.155,181.469C78.155,180.365 79.051,179.469 80.155,179.469C81.259,179.469 82.155,180.365 82.155,181.469L82.155,181.602C82.155,182.706 81.259,183.602 80.155,183.602C79.051,183.602 78.155,182.706 78.155,181.602L78.155,181.469Z" style="fill:white;"/>
        <g transform="matrix(1,0,0,1,335.845,-65.6021)">
            <path d="M80.155,181.469L80.155,181.602" style="fill:none;"/>
            <path d="M78.155,181.469C78.155,180.365 79.051,179.469 80.155,179.469C81.259,179.469 82.155,180.365 82.155,181.469L82.155,181.602C82.155,182.706 81.259,183.602 80.155,183.602C79.051,183.602 78.155,182.706 78.155,181.602L78.155,181.469Z" style="fill:white;"/>
        </g>
        <g transform="matrix(1,0,0,1,255.845,78.531)">
            <path d="M80.155,181.469L80.155,181.602" style="fill:none;"/>
            <path d="M78.155,181.469C78.155,180.365 79.051,179.469 80.155,179.469C81.259,179.469 82.155,180.365 82.155,181.469L82.155,181.602C82.155,182.706 81.259,183.602 80.155,183.602C79.051,183.602 78.155,182.706 78.155,181.602L78.155,181.469Z" style="fill:white;"/>
        </g>
        <g transform="matrix(1,0,0,1,0,334.398)">
            <path d="M80.155,181.469L80.155,181.602" style="fill:none;"/>
            <path d="M78.155,181.469C78.155,180.365 79.051,179.469 80.155,179.469C81.259,179.469 82.155,180.365 82.155,181.469L82.155,181.602C82.155,182.706 81.259,183.602 80.155,183.602C79.051,183.602 78.155,182.706 78.155,181.602L78.155,181.469Z" style="fill:white;"/>
        </g>
        <g transform="matrix(1,0,0,1,631.845,290.531)">
            <path d="M80.155,181.469L80.155,181.602" style="fill:none;"/>
            <path d="M78.155,181.469C78.155,180.365 79.051,179.469 80.155,179.469C81.259,179.469 82.155,180.365 82.155,181.469L82.155,181.602C82.155,182.706 81.259,183.602 80.155,183.602C79.051,183.602 78.155,182.706 78.155,181.602L78.155,181.469Z" style="fill:white;"/>
        </g>
        <g transform="matrix(1,0,0,1,75.8453,-145.602)">
            <path d="M80.155,181.469L80.155,181.602" style="fill:none;"/>
            <path d="M78.155,181.469C78.155,180.365 79.051,179.469 80.155,179.469C81.259,179.469 82.155,180.365 82.155,181.469L82.155,181.602C82.155,182.706 81.259,183.602 80.155,183.602C79.051,183.602 78.155,182.706 78.155,181.602L78.155,181.469Z" style="fill:white;"/>
        </g>
        <g transform="matrix(1,0,0,1,727.845,-101.602)">
            <path d="M80.155,181.469L80.155,181.602" style="fill:none;"/>
            <path d="M78.155,181.469C78.155,180.365 79.051,179.469 80.155,179.469C81.259,179.469 82.155,180.365 82.155,181.469L82.155,181.602C82.155,182.706 81.259,183.602 80.155,183.602C79.051,183.602 78.155,182.706 78.155,181.602L78.155,181.469Z" style="fill:white;"/>
        </g>
        <g transform="matrix(1,0,0,1,991.845,-29.6021)">
            <path d="M80.155,181.469L80.155,181.602" style="fill:none;"/>
            <path d="M78.155,181.469C78.155,180.365 79.051,179.469 80.155,179.469C81.259,179.469 82.155,180.365 82.155,181.469L82.155,181.602C82.155,182.706 81.259,183.602 80.155,183.602C79.051,183.602 78.155,182.706 78.155,181.602L78.155,181.469Z" style="fill:white;"/>
        </g>
        <g transform="matrix(1,0,0,1,1039.85,362.398)">
            <path d="M80.155,181.469L80.155,181.602" style="fill:none;"/>
            <path d="M78.155,181.469C78.155,180.365 79.051,179.469 80.155,179.469C81.259,179.469 82.155,180.365 82.155,181.469L82.155,181.602C82.155,182.706 81.259,183.602 80.155,183.602C79.051,183.602 78.155,182.706 78.155,181.602L78.155,181.469Z" style="fill:white;"/>
        </g>
        <g transform="matrix(1,0,0,1,367.845,406.398)">
            <path d="M80.155,181.469L80.155,181.602" style="fill:none;"/>
            <path d="M78.155,181.469C78.155,180.365 79.051,179.469 80.155,179.469C81.259,179.469 82.155,180.365 82.155,181.469L82.155,181.602C82.155,182.706 81.259,183.602 80.155,183.602C79.051,183.602 78.155,182.706 78.155,181.602L78.155,181.469Z" style="fill:white;"/>
        </g>
        <g transform="matrix(1,0,0,1,571.845,38.3979)">
            <path d="M80.155,181.469L80.155,181.602" style="fill:none;"/>
            <path d="M78.155,181.469C78.155,180.365 79.051,179.469 80.155,179.469C81.259,179.469 82.155,180.365 82.155,181.469L82.155,181.602C82.155,182.706 81.259,183.602 80.155,183.602C79.051,183.602 78.155,182.706 78.155,181.602L78.155,181.469Z" style="fill:white;"/>
        </g>
        <g transform="matrix(1,0,0,1,907.845,106.398)">
            <path d="M80.155,181.469L80.155,181.602" style="fill:none;"/>
            <path d="M78.155,181.469C78.155,180.365 79.051,179.469 80.155,179.469C81.259,179.469 82.155,180.365 82.155,181.469L82.155,181.602C82.155,182.706 81.259,183.602 80.155,183.602C79.051,183.602 78.155,182.706 78.155,181.602L78.155,181.469Z" style="fill:white;"/>
        </g>
    </g>
</svg>
