<?xml version="1.0" encoding="UTF-8" standalone="no"?>
<!DOCTYPE svg PUBLIC "-//W3C//DTD SVG 1.1//EN" "http://www.w3.org/Graphics/SVG/1.1/DTD/svg11.dtd">
<svg width="100%" height="100%" viewBox="0 0 1280 720" version="1.1" xmlns="http://www.w3.org/2000/svg" xmlns:xlink="http://www.w3.org/1999/xlink" xml:space="preserve" xmlns:serif="http://www.serif.com/" style="fill-rule:evenodd;clip-rule:evenodd;stroke-linejoin:round;stroke-miterlimit:2;">
    <g>
        <path d="M896.969,259.495C896.969,258.391 897.866,257.495 898.969,257.495C900.073,257.495 900.969,258.391 900.969,259.495L900.969,259.6C900.969,260.704 900.073,261.6 898.969,261.6C897.866,261.6 896.969,260.704 896.969,259.6L896.969,259.495Z" style="fill:white;"/>
        <g transform="matrix(1,0,0,1,-282.969,172.4)">
            <path d="M896.969,259.495C896.969,258.391 897.866,257.495 898.969,257.495C900.073,257.495 900.969,258.391 900.969,259.495L900.969,259.6C900.969,260.704 900.073,261.6 898.969,261.6C897.866,261.6 896.969,260.704 896.969,259.6L896.969,259.495Z" style="fill:white;"/>
        </g>
        <g transform="matrix(1,0,0,1,-414.969,-147.495)">
            <path d="M896.969,259.495C896.969,258.391 897.866,257.495 898.969,257.495C900.073,257.495 900.969,258.391 900.969,259.495L900.969,259.6C900.969,260.704 900.073,261.6 898.969,261.6C897.866,261.6 896.969,260.704 896.969,259.6L896.969,259.495Z" style="fill:white;"/>
        </g>
        <g transform="matrix(1,0,0,1,-602.969,276.4)">
            <path d="M896.969,259.495C896.969,258.391 897.866,257.495 898.969,257.495C900.073,257.495 900.969,258.391 900.969,259.495L900.969,259.6C900.969,260.704 900.073,261.6 898.969,261.6C897.866,261.6 896.969,260.704 896.969,259.6L896.969,259.495Z" style="fill:white;"/>
        </g>
        <g transform="matrix(1,0,0,1,-742.969,-71.495)">
            <path d="M896.969,259.495C896.969,258.391 897.866,257.495 898.969,257.495C900.073,257.495 900.969,258.391 900.969,259.495L900.969,259.6C900.969,260.704 900.073,261.6 898.969,261.6C897.866,261.6 896.969,260.704 896.969,259.6L896.969,259.495Z" style="fill:white;"/>
        </g>
        <g transform="matrix(1,0,0,1,-830.969,-199.495)">
            <path d="M896.969,259.495C896.969,258.391 897.866,257.495 898.969,257.495C900.073,257.495 900.969,258.391 900.969,259.495L900.969,259.6C900.969,260.704 900.073,261.6 898.969,261.6C897.866,261.6 896.969,260.704 896.969,259.6L896.969,259.495Z" style="fill:white;"/>
        </g>
        <g transform="matrix(1,0,0,1,-810.969,200.505)">
            <path d="M896.969,259.495C896.969,258.391 897.866,257.495 898.969,257.495C900.073,257.495 900.969,258.391 900.969,259.495L900.969,259.6C900.969,260.704 900.073,261.6 898.969,261.6C897.866,261.6 896.969,260.704 896.969,259.6L896.969,259.495Z" style="fill:white;"/>
        </g>
        <g transform="matrix(1,0,0,1,105.031,260.4)">
            <path d="M896.969,259.495C896.969,258.391 897.866,257.495 898.969,257.495C900.073,257.495 900.969,258.391 900.969,259.495L900.969,259.6C900.969,260.704 900.073,261.6 898.969,261.6C897.866,261.6 896.969,260.704 896.969,259.6L896.969,259.495Z" style="fill:white;"/>
        </g>
        <g transform="matrix(1,0,0,1,37.0306,-179.495)">
            <path d="M896.969,259.495C896.969,258.391 897.866,257.495 898.969,257.495C900.073,257.495 900.969,258.391 900.969,259.495L900.969,259.6C900.969,260.704 900.073,261.6 898.969,261.6C897.866,261.6 896.969,260.704 896.969,259.6L896.969,259.495Z" style="fill:white;"/>
        </g>
        <g transform="matrix(1,0,0,1,-274.969,-7.49502)">
            <path d="M896.969,259.495C896.969,258.391 897.866,257.495 898.969,257.495C900.073,257.495 900.969,258.391 900.969,259.495L900.969,259.6C900.969,260.704 900.073,261.6 898.969,261.6C897.866,261.6 896.969,260.704 896.969,259.6L896.969,259.495Z" style="fill:white;"/>
        </g>
        <g transform="matrix(1,0,0,1,281.031,108.4)">
            <path d="M896.969,259.495C896.969,258.391 897.866,257.495 898.969,257.495C900.073,257.495 900.969,258.391 900.969,259.495L900.969,259.6C900.969,260.704 900.073,261.6 898.969,261.6C897.866,261.6 896.969,260.704 896.969,259.6L896.969,259.495Z" style="fill:white;"/>
        </g>
        <g transform="matrix(1,0,0,1,-522.969,40.4003)">
            <path d="M896.969,259.495C896.969,258.391 897.866,257.495 898.969,257.495C900.073,257.495 900.969,258.391 900.969,259.495L900.969,259.6C900.969,260.704 900.073,261.6 898.969,261.6C897.866,261.6 896.969,260.704 896.969,259.6L896.969,259.495Z" style="fill:white;"/>
        </g>
        <g transform="matrix(1,0,0,1,-170.969,376.505)">
            <path d="M896.969,259.495C896.969,258.391 897.866,257.495 898.969,257.495C900.073,257.495 900.969,258.391 900.969,259.495L900.969,259.6C900.969,260.704 900.073,261.6 898.969,261.6C897.866,261.6 896.969,260.704 896.969,259.6L896.969,259.495Z" style="fill:white;"/>
        </g>
    </g>
</svg>
