<?xml version="1.0" encoding="UTF-8" standalone="no"?>
<!DOCTYPE svg PUBLIC "-//W3C//DTD SVG 1.1//EN" "http://www.w3.org/Graphics/SVG/1.1/DTD/svg11.dtd">
<svg width="100%" height="100%" viewBox="0 0 1280 720" version="1.1" xmlns="http://www.w3.org/2000/svg" xmlns:xlink="http://www.w3.org/1999/xlink" xml:space="preserve" xmlns:serif="http://www.serif.com/" style="fill-rule:evenodd;clip-rule:evenodd;stroke-linejoin:round;stroke-miterlimit:2;">
    <g>
        <path d="M147.742,104.352L147.635,104.352" style="fill:none;"/>
        <path d="M147.742,102.352C148.846,102.352 149.742,103.248 149.742,104.352C149.742,105.456 148.846,106.352 147.742,106.352L147.635,106.352C146.532,106.352 145.635,105.456 145.635,104.352C145.635,103.248 146.532,102.352 147.635,102.352L147.742,102.352Z" style="fill:white;"/>
        <g transform="matrix(1,0,0,1,80.258,243.648)">
            <path d="M147.742,104.352L147.635,104.352" style="fill:none;"/>
            <path d="M147.742,102.352C148.846,102.352 149.742,103.248 149.742,104.352C149.742,105.456 148.846,106.352 147.742,106.352L147.635,106.352C146.532,106.352 145.635,105.456 145.635,104.352C145.635,103.248 146.532,102.352 147.635,102.352L147.742,102.352Z" style="fill:white;"/>
        </g>
        <g transform="matrix(1,0,0,1,308.365,71.6478)">
            <path d="M147.742,104.352L147.635,104.352" style="fill:none;"/>
            <path d="M147.742,102.352C148.846,102.352 149.742,103.248 149.742,104.352C149.742,105.456 148.846,106.352 147.742,106.352L147.635,106.352C146.532,106.352 145.635,105.456 145.635,104.352C145.635,103.248 146.532,102.352 147.635,102.352L147.742,102.352Z" style="fill:white;"/>
        </g>
        <g transform="matrix(1,0,0,1,-71.6354,191.648)">
            <path d="M147.742,104.352L147.635,104.352" style="fill:none;"/>
            <path d="M147.742,102.352C148.846,102.352 149.742,103.248 149.742,104.352C149.742,105.456 148.846,106.352 147.742,106.352L147.635,106.352C146.532,106.352 145.635,105.456 145.635,104.352C145.635,103.248 146.532,102.352 147.635,102.352L147.742,102.352Z" style="fill:white;"/>
        </g>
        <g transform="matrix(1,0,0,1,80.1515,427.648)">
            <path d="M147.742,104.352L147.635,104.352" style="fill:none;"/>
            <path d="M147.742,102.352C148.846,102.352 149.742,103.248 149.742,104.352C149.742,105.456 148.846,106.352 147.742,106.352L147.635,106.352C146.532,106.352 145.635,105.456 145.635,104.352C145.635,103.248 146.532,102.352 147.635,102.352L147.742,102.352Z" style="fill:white;"/>
        </g>
        <g transform="matrix(1,0,0,1,360.365,555.648)">
            <path d="M147.742,104.352L147.635,104.352" style="fill:none;"/>
            <path d="M147.742,102.352C148.846,102.352 149.742,103.248 149.742,104.352C149.742,105.456 148.846,106.352 147.742,106.352L147.635,106.352C146.532,106.352 145.635,105.456 145.635,104.352C145.635,103.248 146.532,102.352 147.635,102.352L147.742,102.352Z" style="fill:white;"/>
        </g>
        <g transform="matrix(1,0,0,1,344.365,279.648)">
            <path d="M147.742,104.352L147.635,104.352" style="fill:none;"/>
            <path d="M147.742,102.352C148.846,102.352 149.742,103.248 149.742,104.352C149.742,105.456 148.846,106.352 147.742,106.352L147.635,106.352C146.532,106.352 145.635,105.456 145.635,104.352C145.635,103.248 146.532,102.352 147.635,102.352L147.742,102.352Z" style="fill:white;"/>
        </g>
        <g transform="matrix(1,0,0,1,496.365,-32.3522)">
            <path d="M147.742,104.352L147.635,104.352" style="fill:none;"/>
            <path d="M147.742,102.352C148.846,102.352 149.742,103.248 149.742,104.352C149.742,105.456 148.846,106.352 147.742,106.352L147.635,106.352C146.532,106.352 145.635,105.456 145.635,104.352C145.635,103.248 146.532,102.352 147.635,102.352L147.742,102.352Z" style="fill:white;"/>
        </g>
        <g transform="matrix(1,0,0,1,-75.742,527.648)">
            <path d="M147.742,104.352L147.635,104.352" style="fill:none;"/>
            <path d="M147.742,102.352C148.846,102.352 149.742,103.248 149.742,104.352C149.742,105.456 148.846,106.352 147.742,106.352L147.635,106.352C146.532,106.352 145.635,105.456 145.635,104.352C145.635,103.248 146.532,102.352 147.635,102.352L147.742,102.352Z" style="fill:white;"/>
        </g>
        <g transform="matrix(1,0,0,1,752.365,287.648)">
            <path d="M147.742,104.352L147.635,104.352" style="fill:none;"/>
            <path d="M147.742,102.352C148.846,102.352 149.742,103.248 149.742,104.352C149.742,105.456 148.846,106.352 147.742,106.352L147.635,106.352C146.532,106.352 145.635,105.456 145.635,104.352C145.635,103.248 146.532,102.352 147.635,102.352L147.742,102.352Z" style="fill:white;"/>
        </g>
        <g transform="matrix(1,0,0,1,824.365,-36.3522)">
            <path d="M147.742,104.352L147.635,104.352" style="fill:none;"/>
            <path d="M147.742,102.352C148.846,102.352 149.742,103.248 149.742,104.352C149.742,105.456 148.846,106.352 147.742,106.352L147.635,106.352C146.532,106.352 145.635,105.456 145.635,104.352C145.635,103.248 146.532,102.352 147.635,102.352L147.742,102.352Z" style="fill:white;"/>
        </g>
        <g transform="matrix(1,0,0,1,712.258,523.648)">
            <path d="M147.742,104.352L147.635,104.352" style="fill:none;"/>
            <path d="M147.742,102.352C148.846,102.352 149.742,103.248 149.742,104.352C149.742,105.456 148.846,106.352 147.742,106.352L147.635,106.352C146.532,106.352 145.635,105.456 145.635,104.352C145.635,103.248 146.532,102.352 147.635,102.352L147.742,102.352Z" style="fill:white;"/>
        </g>
        <g transform="matrix(1,0,0,1,1028.36,163.648)">
            <path d="M147.742,104.352L147.635,104.352" style="fill:none;"/>
            <path d="M147.742,102.352C148.846,102.352 149.742,103.248 149.742,104.352C149.742,105.456 148.846,106.352 147.742,106.352L147.635,106.352C146.532,106.352 145.635,105.456 145.635,104.352C145.635,103.248 146.532,102.352 147.635,102.352L147.742,102.352Z" style="fill:white;"/>
        </g>
    </g>
</svg>
