<?xml version="1.0" encoding="UTF-8" standalone="no"?>
<!DOCTYPE svg PUBLIC "-//W3C//DTD SVG 1.1//EN" "http://www.w3.org/Graphics/SVG/1.1/DTD/svg11.dtd">
<svg width="100%" height="100%" viewBox="0 0 1280 720" version="1.1" xmlns="http://www.w3.org/2000/svg" xmlns:xlink="http://www.w3.org/1999/xlink" xml:space="preserve" xmlns:serif="http://www.serif.com/" style="fill-rule:evenodd;clip-rule:evenodd;stroke-linejoin:round;stroke-miterlimit:2;">
    <g>
        <path d="M830.141,198.365C830.141,197.261 831.038,196.365 832.141,196.365C833.245,196.365 834.141,197.261 834.141,198.365L834.141,198.45C834.141,199.554 833.245,200.45 832.141,200.45C831.038,200.45 830.141,199.554 830.141,198.45L830.141,198.365Z" style="fill:white;"/>
        <g transform="matrix(1,0,0,1,-176.141,125.635)">
            <path d="M830.141,198.365C830.141,197.261 831.038,196.365 832.141,196.365C833.245,196.365 834.141,197.261 834.141,198.365L834.141,198.45C834.141,199.554 833.245,200.45 832.141,200.45C831.038,200.45 830.141,199.554 830.141,198.45L830.141,198.365Z" style="fill:white;"/>
        </g>
        <g transform="matrix(1,0,0,1,-36.1414,353.55)">
            <path d="M830.141,198.365C830.141,197.261 831.038,196.365 832.141,196.365C833.245,196.365 834.141,197.261 834.141,198.365L834.141,198.45C834.141,199.554 833.245,200.45 832.141,200.45C831.038,200.45 830.141,199.554 830.141,198.45L830.141,198.365Z" style="fill:white;"/>
        </g>
        <g transform="matrix(1,0,0,1,315.859,-78.45)">
            <path d="M830.141,198.365C830.141,197.261 831.038,196.365 832.141,196.365C833.245,196.365 834.141,197.261 834.141,198.365L834.141,198.45C834.141,199.554 833.245,200.45 832.141,200.45C831.038,200.45 830.141,199.554 830.141,198.45L830.141,198.365Z" style="fill:white;"/>
        </g>
        <g transform="matrix(1,0,0,1,-396.141,21.55)">
            <path d="M830.141,198.365C830.141,197.261 831.038,196.365 832.141,196.365C833.245,196.365 834.141,197.261 834.141,198.365L834.141,198.45C834.141,199.554 833.245,200.45 832.141,200.45C831.038,200.45 830.141,199.554 830.141,198.45L830.141,198.365Z" style="fill:white;"/>
        </g>
        <g transform="matrix(1,0,0,1,-580.141,-126.45)">
            <path d="M830.141,198.365C830.141,197.261 831.038,196.365 832.141,196.365C833.245,196.365 834.141,197.261 834.141,198.365L834.141,198.45C834.141,199.554 833.245,200.45 832.141,200.45C831.038,200.45 830.141,199.554 830.141,198.45L830.141,198.365Z" style="fill:white;"/>
        </g>
        <g transform="matrix(1,0,0,1,-500.141,233.635)">
            <path d="M830.141,198.365C830.141,197.261 831.038,196.365 832.141,196.365C833.245,196.365 834.141,197.261 834.141,198.365L834.141,198.45C834.141,199.554 833.245,200.45 832.141,200.45C831.038,200.45 830.141,199.554 830.141,198.45L830.141,198.365Z" style="fill:white;"/>
        </g>
        <g transform="matrix(1,0,0,1,-684.141,433.635)">
            <path d="M830.141,198.365C830.141,197.261 831.038,196.365 832.141,196.365C833.245,196.365 834.141,197.261 834.141,198.365L834.141,198.45C834.141,199.554 833.245,200.45 832.141,200.45C831.038,200.45 830.141,199.554 830.141,198.45L830.141,198.365Z" style="fill:white;"/>
        </g>
        <g transform="matrix(1,0,0,1,227.859,377.55)">
            <path d="M830.141,198.365C830.141,197.261 831.038,196.365 832.141,196.365C833.245,196.365 834.141,197.261 834.141,198.365L834.141,198.45C834.141,199.554 833.245,200.45 832.141,200.45C831.038,200.45 830.141,199.554 830.141,198.45L830.141,198.365Z" style="fill:white;"/>
        </g>
        <g transform="matrix(1,0,0,1,319.859,157.635)">
            <path d="M830.141,198.365C830.141,197.261 831.038,196.365 832.141,196.365C833.245,196.365 834.141,197.261 834.141,198.365L834.141,198.45C834.141,199.554 833.245,200.45 832.141,200.45C831.038,200.45 830.141,199.554 830.141,198.45L830.141,198.365Z" style="fill:white;"/>
        </g>
        <g transform="matrix(1,0,0,1,-276.141,-134.45)">
            <path d="M830.141,198.365C830.141,197.261 831.038,196.365 832.141,196.365C833.245,196.365 834.141,197.261 834.141,198.365L834.141,198.45C834.141,199.554 833.245,200.45 832.141,200.45C831.038,200.45 830.141,199.554 830.141,198.45L830.141,198.365Z" style="fill:white;"/>
        </g>
        <g transform="matrix(1,0,0,1,-728.141,-90.3648)">
            <path d="M830.141,198.365C830.141,197.261 831.038,196.365 832.141,196.365C833.245,196.365 834.141,197.261 834.141,198.365L834.141,198.45C834.141,199.554 833.245,200.45 832.141,200.45C831.038,200.45 830.141,199.554 830.141,198.45L830.141,198.365Z" style="fill:white;"/>
        </g>
        <g transform="matrix(1,0,0,1,-764.141,165.635)">
            <path d="M830.141,198.365C830.141,197.261 831.038,196.365 832.141,196.365C833.245,196.365 834.141,197.261 834.141,198.365L834.141,198.45C834.141,199.554 833.245,200.45 832.141,200.45C831.038,200.45 830.141,199.554 830.141,198.45L830.141,198.365Z" style="fill:white;"/>
        </g>
    </g>
</svg>
