<?xml version="1.0" encoding="UTF-8" standalone="no"?>
<!DOCTYPE svg PUBLIC "-//W3C//DTD SVG 1.1//EN" "http://www.w3.org/Graphics/SVG/1.1/DTD/svg11.dtd">
<svg width="100%" height="100%" viewBox="0 0 1280 720" version="1.1" xmlns="http://www.w3.org/2000/svg" xmlns:xlink="http://www.w3.org/1999/xlink" xml:space="preserve" xmlns:serif="http://www.serif.com/" style="fill-rule:evenodd;clip-rule:evenodd;stroke-linejoin:round;stroke-miterlimit:2;">
    <g>
        <path d="M528.603,324.779C528.603,323.675 529.5,322.779 530.603,322.779C531.707,322.779 532.603,323.675 532.603,324.779L532.603,324.987C532.603,326.09 531.707,326.987 530.603,326.987C529.5,326.987 528.603,326.09 528.603,324.987L528.603,324.779Z" style="fill:white;"/>
        <g transform="matrix(1,0,0,1,-22.6033,191.221)">
            <path d="M528.603,324.779C528.603,323.675 529.5,322.779 530.603,322.779C531.707,322.779 532.603,323.675 532.603,324.779L532.603,324.987C532.603,326.09 531.707,326.987 530.603,326.987C529.5,326.987 528.603,326.09 528.603,324.987L528.603,324.779Z" style="fill:white;"/>
        </g>
        <g transform="matrix(1,0,0,1,709.397,315.221)">
            <path d="M528.603,324.779C528.603,323.675 529.5,322.779 530.603,322.779C531.707,322.779 532.603,323.675 532.603,324.779L532.603,324.987C532.603,326.09 531.707,326.987 530.603,326.987C529.5,326.987 528.603,326.09 528.603,324.987L528.603,324.779Z" style="fill:white;"/>
        </g>
        <g transform="matrix(1,0,0,1,109.397,-180.779)">
            <path d="M528.603,324.779C528.603,323.675 529.5,322.779 530.603,322.779C531.707,322.779 532.603,323.675 532.603,324.779L532.603,324.987C532.603,326.09 531.707,326.987 530.603,326.987C529.5,326.987 528.603,326.09 528.603,324.987L528.603,324.779Z" style="fill:white;"/>
        </g>
        <g transform="matrix(1,0,0,1,-326.603,179.221)">
            <path d="M528.603,324.779C528.603,323.675 529.5,322.779 530.603,322.779C531.707,322.779 532.603,323.675 532.603,324.779L532.603,324.987C532.603,326.09 531.707,326.987 530.603,326.987C529.5,326.987 528.603,326.09 528.603,324.987L528.603,324.779Z" style="fill:white;"/>
        </g>
        <g transform="matrix(1,0,0,1,-290.603,-176.779)">
            <path d="M528.603,324.779C528.603,323.675 529.5,322.779 530.603,322.779C531.707,322.779 532.603,323.675 532.603,324.779L532.603,324.987C532.603,326.09 531.707,326.987 530.603,326.987C529.5,326.987 528.603,326.09 528.603,324.987L528.603,324.779Z" style="fill:white;"/>
        </g>
        <g transform="matrix(1,0,0,1,349.397,-176.987)">
            <path d="M528.603,324.779C528.603,323.675 529.5,322.779 530.603,322.779C531.707,322.779 532.603,323.675 532.603,324.779L532.603,324.987C532.603,326.09 531.707,326.987 530.603,326.987C529.5,326.987 528.603,326.09 528.603,324.987L528.603,324.779Z" style="fill:white;"/>
        </g>
        <g transform="matrix(1,0,0,1,425.397,51.2214)">
            <path d="M528.603,324.779C528.603,323.675 529.5,322.779 530.603,322.779C531.707,322.779 532.603,323.675 532.603,324.779L532.603,324.987C532.603,326.09 531.707,326.987 530.603,326.987C529.5,326.987 528.603,326.09 528.603,324.987L528.603,324.779Z" style="fill:white;"/>
        </g>
        <g transform="matrix(1,0,0,1,257.397,163.013)">
            <path d="M528.603,324.779C528.603,323.675 529.5,322.779 530.603,322.779C531.707,322.779 532.603,323.675 532.603,324.779L532.603,324.987C532.603,326.09 531.707,326.987 530.603,326.987C529.5,326.987 528.603,326.09 528.603,324.987L528.603,324.779Z" style="fill:white;"/>
        </g>
        <g transform="matrix(1,0,0,1,653.397,-180.987)">
            <path d="M528.603,324.779C528.603,323.675 529.5,322.779 530.603,322.779C531.707,322.779 532.603,323.675 532.603,324.779L532.603,324.987C532.603,326.09 531.707,326.987 530.603,326.987C529.5,326.987 528.603,326.09 528.603,324.987L528.603,324.779Z" style="fill:white;"/>
        </g>
        <g transform="matrix(1,0,0,1,201.397,-68.7786)">
            <path d="M528.603,324.779C528.603,323.675 529.5,322.779 530.603,322.779C531.707,322.779 532.603,323.675 532.603,324.779L532.603,324.987C532.603,326.09 531.707,326.987 530.603,326.987C529.5,326.987 528.603,326.09 528.603,324.987L528.603,324.779Z" style="fill:white;"/>
        </g>
        <g transform="matrix(1,0,0,1,-254.603,-92.7786)">
            <path d="M528.603,324.779C528.603,323.675 529.5,322.779 530.603,322.779C531.707,322.779 532.603,323.675 532.603,324.779L532.603,324.987C532.603,326.09 531.707,326.987 530.603,326.987C529.5,326.987 528.603,326.09 528.603,324.987L528.603,324.779Z" style="fill:white;"/>
        </g>
        <g transform="matrix(1,0,0,1,-150.603,131.013)">
            <path d="M528.603,324.779C528.603,323.675 529.5,322.779 530.603,322.779C531.707,322.779 532.603,323.675 532.603,324.779L532.603,324.987C532.603,326.09 531.707,326.987 530.603,326.987C529.5,326.987 528.603,326.09 528.603,324.987L528.603,324.779Z" style="fill:white;"/>
        </g>
        <g transform="matrix(1,0,0,1,217.397,-172.987)">
            <path d="M528.603,324.779C528.603,323.675 529.5,322.779 530.603,322.779C531.707,322.779 532.603,323.675 532.603,324.779L532.603,324.987C532.603,326.09 531.707,326.987 530.603,326.987C529.5,326.987 528.603,326.09 528.603,324.987L528.603,324.779Z" style="fill:white;"/>
        </g>
    </g>
</svg>
